# xmcd
#
# Track frame offsets:
# 150
# 15380
# 32554
# 52549
# 68455
# 82766
# 105875
# 121032
# 138812
# 151587
# 168876
# 185214
#
# Disc length: 2705 seconds
#
# Revision: 0
# Processed by: cddbd v1.5.2PL0 Copyright (c) Steve Scherf et al.
# Submitted via: Axialis_AX_CDPlayer 2.6
#
DISCID=700a8f0c
DTITLE=Stacy Grubb - Hurricane
DYEAR=1900
DGENRE=
TTITLE0=Hurricane
TTITLE1=Baby Dear
TTITLE2=Appalachian Rain
TTITLE3=West Virginia Wildflower
TTITLE4=Violet Steele
TTITLE5=Time Hasn't Changed Anything
TTITLE6=Runaway Train
TTITLE7=I Wonder Where You Are
TTITLE8=Hard Row To Hoe
TTITLE9=Let It Go
TTITLE10=Gone For Good
TTITLE11=Once Upon A Cross
EXTD=www.stacygrubb.com
EXTT0=
EXTT1=
EXTT2=
EXTT3=
EXTT4=
EXTT5=
EXTT6=
EXTT7=
EXTT8=
EXTT9=
EXTT10=
EXTT11=
PLAYORDER=
